<svg width="398" height="500" viewBox="0 0 398 500" fill="none" xmlns="http://www.w3.org/2000/svg">
<foreignObject x="-60" y="-64" width="517.589" height="624.166"><div xmlns="http://www.w3.org/1999/xhtml" style="backdrop-filter:blur(42px);clip-path:url(#bgblur_1_141_4311_clip_path);height:100%;width:100%"></div></foreignObject><g opacity="0.7" filter="url(#filter0_d_141_4311)" data-figma-bg-blur-radius="84">
<g clip-path="url(#clip0_141_4311)">
<rect x="24" y="101.347" width="200" height="410.289" rx="15.4341" transform="rotate(-24 24 101.347)" fill="#EBEBEB" fill-opacity="0.4" shape-rendering="crispEdges"/>
<g opacity="0.2" filter="url(#filter1_f_141_4311)">
<path d="M179.228 56.1296C54.8144 48.911 402.995 584.401 -187.365 219.347C-286.749 157.892 -191.356 -10.4741 -90.1241 -55.5454C11.1078 -100.617 131.701 -50.6182 179.228 56.1296Z" fill="#63CAF6" fill-opacity="0.8"/>
</g>
<g opacity="0.4" filter="url(#filter2_f_141_4311)">
<path d="M359.736 10.5268C394.045 87.5863 362.546 176.463 289.38 209.039C198.135 69.3474 154.635 62.3474 83.6347 79.8474C49.3256 2.78782 91.9692 -37.4429 165.135 -70.0185C238.301 -102.594 325.427 -66.5328 359.736 10.5268Z" fill="#40D688" fill-opacity="0.7"/>
</g>
<g opacity="0.5" style="mix-blend-mode:overlay">
<path d="M64.8751 132.179L57.1439 114.814L50.8587 117.612L49.4791 114.514L65.4405 107.407L66.8202 110.506L60.535 113.304L68.2662 130.669L64.8751 132.179ZM79.7588 125.972C78.0048 126.753 76.4671 126.971 75.1455 126.625C73.8435 126.271 72.8757 125.382 72.2423 123.96C71.5655 122.439 71.5559 121.054 72.2136 119.804C72.8908 118.545 74.1453 117.508 75.9773 116.692L79.6899 115.039C79.0958 114.019 78.4292 113.335 77.6904 112.987C76.9515 112.639 76.1046 112.677 75.1497 113.102C74.4481 113.415 73.8992 113.834 73.5032 114.361C73.1071 114.888 72.8628 115.545 72.7702 116.334L69.4367 116.557C69.4622 115.775 69.6068 114.998 69.8706 114.227C70.1452 113.427 70.5985 112.688 71.2305 112.01C71.8821 111.323 72.7633 110.732 73.8741 110.238C75.2968 109.604 76.6115 109.357 77.8181 109.497C79.016 109.618 80.069 110.095 80.9771 110.928C81.9048 111.753 82.694 112.896 83.3447 114.358L86.8233 122.407L83.8123 123.747L82.9306 122.003C82.8445 122.859 82.5331 123.628 81.9964 124.311C81.4791 124.985 80.7333 125.539 79.7588 125.972ZM78.9446 123.042C79.6657 122.721 80.2297 122.283 80.6366 121.728C81.0542 121.146 81.2878 120.516 81.3371 119.84C81.406 119.156 81.2929 118.482 80.9979 117.82L80.8677 117.527L78.149 118.738C76.8433 119.319 76.0097 119.912 75.6484 120.517C75.2784 121.102 75.2409 121.725 75.5359 122.388C75.7875 122.953 76.2112 123.302 76.807 123.434C77.4135 123.537 78.1261 123.407 78.9446 123.042ZM95.7032 118.873C94.7287 119.307 93.7671 119.56 92.8185 119.632C91.8698 119.705 90.9859 119.608 90.167 119.342C89.3394 119.056 88.6091 118.623 87.9762 118.04L90.2522 115.521C90.7875 115.936 91.4202 116.203 92.1502 116.322C92.8998 116.432 93.6253 116.331 94.3269 116.018C95.087 115.68 95.6347 115.284 95.9702 114.831C96.3165 114.35 96.3855 113.876 96.1772 113.408C95.9776 112.96 95.6504 112.697 95.1955 112.619C94.7319 112.522 94.1438 112.539 93.4312 112.669L91.888 112.901C90.3481 113.166 89.0192 113.092 87.9012 112.679C86.7746 112.247 85.99 111.534 85.5475 110.54C84.8967 109.078 84.8612 107.739 85.4409 106.524C86.0401 105.3 87.2264 104.293 88.9999 103.503C89.8964 103.104 90.7757 102.876 91.6378 102.819C92.5106 102.734 93.3284 102.814 94.091 103.058C94.8449 103.283 95.4723 103.669 95.973 104.217L93.8009 106.655C93.3891 106.254 92.854 106.049 92.1955 106.039C91.5283 106.009 90.8634 106.141 90.2008 106.436C89.5382 106.731 89.0868 107.107 88.8466 107.565C88.5978 108.002 88.5862 108.475 88.8118 108.981C88.942 109.274 89.2291 109.473 89.6732 109.578C90.1087 109.665 90.6729 109.647 91.366 109.525L93.273 109.167C94.3321 108.975 95.2765 108.999 96.1062 109.236C96.9273 109.455 97.6229 109.81 98.1929 110.304C98.7542 110.778 99.1737 111.327 99.4514 111.95C99.8418 112.827 99.9312 113.71 99.7195 114.598C99.5273 115.478 99.0849 116.294 98.3922 117.046C97.6909 117.778 96.7945 118.388 95.7032 118.873ZM109.818 112.589C108.278 113.275 106.93 113.42 105.773 113.024C104.627 112.6 103.733 111.667 103.09 110.225L99.6674 102.537L97.241 103.617L95.9915 100.811L98.4179 99.7303L96.3874 95.1699L99.6324 93.7252L101.663 98.2856L105.609 96.5285L106.859 99.3349L102.912 101.092L106.062 108.166C106.366 108.849 106.752 109.296 107.22 109.508C107.707 109.711 108.263 109.674 108.886 109.396C109.081 109.309 109.278 109.175 109.477 108.993C109.677 108.811 109.875 108.547 110.071 108.203L112.376 110.154C112.026 110.73 111.636 111.219 111.208 111.62C110.788 112.041 110.324 112.364 109.818 112.589ZM121.796 107.256C120.373 107.89 118.963 108.132 117.566 107.984C116.18 107.807 114.909 107.287 113.754 106.423C112.618 105.551 111.716 104.365 111.048 102.864C110.38 101.363 110.112 99.895 110.243 98.4588C110.374 97.0226 110.852 95.7356 111.676 94.5979C112.512 93.432 113.65 92.528 115.093 91.8859C116.398 91.3045 117.729 91.1206 119.085 91.3342C120.433 91.5282 121.691 92.1242 122.859 93.122C124.046 94.1111 125.031 95.4826 125.812 97.2367L114.791 102.144C115.435 103.328 116.313 104.093 117.424 104.439C118.555 104.776 119.676 104.697 120.787 104.203C121.683 103.804 122.337 103.279 122.748 102.629C123.151 101.959 123.374 101.229 123.419 100.439L126.86 100.378C126.798 101.34 126.575 102.256 126.192 103.127C125.829 103.989 125.278 104.772 124.54 105.474C123.821 106.168 122.907 106.762 121.796 107.256ZM113.876 99.5383L121.155 96.2975C120.784 95.6219 120.324 95.1381 119.773 94.846C119.214 94.5345 118.629 94.3746 118.018 94.3663C117.408 94.358 116.82 94.4797 116.254 94.7313C115.709 94.9743 115.205 95.3385 114.744 95.824C114.294 96.2814 113.978 96.8307 113.797 97.472C113.615 98.1132 113.642 98.802 113.876 99.5383ZM144.127 97.384C142.938 97.9133 141.781 98.148 140.657 98.088C139.533 98.0281 138.526 97.7061 137.635 97.1218C136.744 96.5375 136.065 95.7192 135.596 94.6668C135.249 93.8872 135.078 93.1108 135.084 92.3375C135.101 91.5361 135.242 90.7497 135.505 89.9784C135.769 89.2071 136.127 88.4639 136.579 87.7488L138.913 83.9426C139.181 83.4962 139.451 83.026 139.721 82.5319C139.991 82.0379 140.182 81.5212 140.292 80.9817C140.421 80.4336 140.369 79.8965 140.135 79.3703C139.848 78.7271 139.389 78.3246 138.756 78.1625C138.143 77.9918 137.486 78.0626 136.784 78.375C136.161 78.6527 135.712 79.0862 135.437 79.6755C135.182 80.2562 135.184 80.8389 135.444 81.4235C135.679 81.9497 136.053 82.3437 136.566 82.6055C137.08 82.8672 137.686 83.1809 138.386 83.5465L144.175 86.3987L155.287 91.9247L151.399 93.6557L142.526 89.3045L136.585 86.3452C135.792 85.9277 135.111 85.5534 134.544 85.2223C133.967 84.8718 133.492 84.5115 133.117 84.1413C132.752 83.743 132.462 83.3002 132.245 82.813C131.846 81.9165 131.724 81.0133 131.879 80.1035C132.045 79.1655 132.437 78.3139 133.054 77.5489C133.671 76.7839 134.476 76.1801 135.47 75.7376C136.561 75.2517 137.617 75.0268 138.637 75.0629C139.677 75.0904 140.601 75.3562 141.409 75.8604C142.218 76.3646 142.834 77.0941 143.26 78.0491C143.607 78.8287 143.727 79.6506 143.622 80.5149C143.516 81.3793 143.227 82.3022 142.753 83.2837C142.299 84.2566 141.725 85.3292 141.033 86.5015L139.566 88.871C139.308 89.2893 139.093 89.7237 138.92 90.1744C138.747 90.625 138.65 91.0886 138.629 91.5652C138.607 92.0417 138.718 92.5528 138.961 93.0985C139.308 93.8781 139.858 94.4041 140.609 94.6765C141.372 94.9208 142.182 94.852 143.04 94.4702C143.936 94.0711 144.729 93.5431 145.417 92.8864C146.125 92.2209 146.679 91.4722 147.079 90.6401C147.49 89.7799 147.703 88.8679 147.717 87.904C147.732 86.9401 147.514 85.9514 147.062 84.938L150.19 83.5453C150.989 85.3383 151.262 87.1316 151.009 88.9253C150.757 90.719 150.039 92.3581 148.855 93.8426C147.691 95.3185 146.115 96.4989 144.127 97.384ZM76.9541 160.095C76.0576 160.494 75.1978 160.714 74.3748 160.753C73.5712 160.784 72.8162 160.688 72.1099 160.466C71.4036 160.243 70.7677 159.942 70.2021 159.564C69.656 159.176 69.1922 158.764 68.8107 158.327L71.0542 155.891C71.7608 156.534 72.491 156.968 73.245 157.193C74.0184 157.409 74.8046 157.339 75.6037 156.983C76.2468 156.697 76.7859 156.282 77.2209 155.738C77.6668 155.166 77.9273 154.466 78.0026 153.639C78.0779 152.811 77.8725 151.852 77.3866 150.76L71.5036 137.547L74.8947 136.037L81.2593 150.332C81.7278 151.384 81.9495 152.407 81.9241 153.399C81.9096 154.363 81.6968 155.275 81.2858 156.135C80.8748 156.995 80.2959 157.767 79.5491 158.449C78.7935 159.113 77.9286 159.661 76.9541 160.095ZM93.315 152.776C92.1652 153.288 91.0671 153.496 90.0208 153.402C88.9941 153.299 88.0353 152.85 87.1445 152.055C86.2537 151.261 85.4613 150.084 84.7671 148.525L81.0967 140.281L84.3708 138.824L87.7028 146.307C88.2148 147.457 88.7503 148.293 89.3095 148.815C89.8687 149.336 90.4386 149.62 91.0191 149.665C91.6191 149.701 92.231 149.581 92.8546 149.303C93.9742 148.828 94.6712 148.085 94.9456 147.076C95.22 146.066 95.0492 144.87 94.4331 143.486L91.0361 135.856L94.281 134.411L100.789 149.028L97.7193 150.395L96.649 148.384C96.5283 149.372 96.1834 150.249 95.6142 151.017C95.0559 151.756 94.2895 152.342 93.315 152.776ZM110.371 145.182C109.046 145.772 107.748 145.976 106.476 145.795C105.215 145.586 104.046 145.032 102.969 144.134C101.912 143.227 101.04 142.004 100.355 140.464C99.6604 138.905 99.3345 137.439 99.3769 136.066C99.4302 134.664 99.8052 133.435 100.502 132.377C101.21 131.291 102.226 130.454 103.551 129.864C104.565 129.412 105.561 129.237 106.54 129.338C107.511 129.42 108.427 129.748 109.289 130.321L105.723 122.311L108.968 120.866L118.079 141.33L114.98 142.71L113.874 140.54C113.751 141.575 113.39 142.495 112.791 143.299C112.211 144.094 111.404 144.722 110.371 145.182ZM109.862 141.836C110.583 141.515 111.144 141.043 111.544 140.421C111.936 139.78 112.14 139.058 112.157 138.257C112.185 137.427 112.023 136.565 111.671 135.671L111.489 135.262C111.06 134.402 110.532 133.715 109.905 133.199C109.29 132.656 108.617 132.325 107.887 132.207C107.157 132.088 106.422 132.193 105.681 132.523C104.902 132.87 104.287 133.378 103.837 134.045C103.406 134.704 103.171 135.462 103.133 136.32C103.114 137.169 103.309 138.051 103.716 138.967C104.124 139.883 104.66 140.614 105.323 141.16C105.986 141.705 106.711 142.048 107.497 142.188C108.294 142.3 109.083 142.183 109.862 141.836ZM130.756 143.147C129.723 143.607 128.749 143.935 127.833 144.133C126.936 144.322 126.153 144.425 125.484 144.443C124.814 144.461 124.276 144.432 123.869 144.357L123.955 141.166C124.288 141.181 124.722 141.186 125.257 141.181C125.821 141.187 126.449 141.13 127.142 141.008C127.835 140.886 128.571 140.652 129.351 140.305C130.189 139.932 130.861 139.422 131.367 138.776C131.883 138.15 132.169 137.403 132.227 136.537C132.285 135.671 132.071 134.692 131.585 133.6L130.934 132.139C130.792 133.183 130.416 134.121 129.805 134.953C129.206 135.757 128.39 136.389 127.357 136.849C126.032 137.439 124.737 137.653 123.474 137.491C122.231 137.321 121.088 136.826 120.046 136.006C119.014 135.157 118.182 134.022 117.548 132.599C116.871 131.079 116.558 129.642 116.61 128.288C116.68 126.926 117.064 125.716 117.761 124.658C118.477 123.592 119.498 122.764 120.823 122.174C121.856 121.714 122.876 121.54 123.883 121.652C124.91 121.755 125.872 122.132 126.769 122.784L125.715 120.416L128.989 118.958L134.82 132.055C135.558 133.711 135.871 135.253 135.759 136.681C135.656 138.128 135.169 139.395 134.299 140.483C133.438 141.591 132.257 142.479 130.756 143.147ZM127.027 133.668C127.767 133.338 128.323 132.857 128.696 132.225C129.087 131.583 129.291 130.862 129.308 130.06C129.316 129.239 129.125 128.39 128.735 127.513C128.336 126.617 127.833 125.907 127.226 125.383C126.61 124.84 125.937 124.509 125.207 124.39C124.469 124.252 123.729 124.348 122.988 124.677C122.209 125.024 121.604 125.527 121.173 126.186C120.753 126.817 120.52 127.551 120.473 128.389C120.437 129.2 120.618 130.053 121.017 130.949C121.408 131.826 121.92 132.532 122.555 133.067C123.201 133.573 123.913 133.887 124.691 134.008C125.468 134.128 126.247 134.015 127.027 133.668ZM145.788 129.413C144.366 130.047 142.956 130.289 141.559 130.141C140.172 129.964 138.901 129.444 137.746 128.58C136.611 127.708 135.709 126.522 135.041 125.021C134.373 123.52 134.104 122.052 134.235 120.616C134.366 119.179 134.844 117.893 135.669 116.755C136.504 115.589 137.643 114.685 139.085 114.043C140.391 113.461 141.722 113.278 143.078 113.491C144.425 113.685 145.683 114.281 146.851 115.279C148.039 116.268 149.023 117.64 149.804 119.394L138.783 124.3C139.427 125.485 140.305 126.25 141.416 126.596C142.547 126.933 143.668 126.854 144.779 126.36C145.676 125.961 146.329 125.436 146.741 124.786C147.143 124.116 147.367 123.386 147.412 122.596L150.852 122.535C150.79 123.497 150.568 124.413 150.185 125.284C149.822 126.146 149.271 126.929 148.533 127.631C147.814 128.325 146.899 128.919 145.788 129.413ZM137.869 121.695L145.148 118.454C144.777 117.779 144.316 117.295 143.766 117.003C143.207 116.691 142.622 116.531 142.011 116.523C141.4 116.515 140.812 116.637 140.247 116.888C139.701 117.131 139.198 117.495 138.737 117.981C138.287 118.438 137.971 118.988 137.789 119.629C137.608 120.27 137.634 120.959 137.869 121.695ZM155.214 124.796L148.707 110.179L151.776 108.813L152.794 110.706C152.904 109.747 153.223 108.916 153.751 108.214C154.279 107.511 154.992 106.961 155.888 106.562C157.057 106.041 158.168 105.862 159.221 106.023C160.274 106.185 161.224 106.72 162.072 107.627C162.041 106.403 162.293 105.345 162.83 104.452C163.367 103.559 164.161 102.878 165.213 102.41C166.909 101.655 168.458 101.619 169.86 102.303C171.253 102.967 172.439 104.424 173.417 106.674L177.139 115.034L173.895 116.479L170.563 108.995C170.042 107.826 169.516 106.986 168.985 106.475C168.445 105.945 167.905 105.648 167.363 105.586C166.822 105.523 166.268 105.618 165.703 105.87C164.681 106.301 164.052 107.013 163.817 108.006C163.601 108.989 163.801 110.173 164.417 111.556L167.814 119.186L164.54 120.644L161.208 113.16C160.687 111.991 160.161 111.151 159.63 110.64C159.11 110.101 158.579 109.8 158.038 109.738C157.496 109.675 156.943 109.77 156.378 110.022C155.356 110.453 154.727 111.165 154.491 112.158C154.275 113.141 154.475 114.325 155.091 115.708L158.489 123.338L155.214 124.796ZM187.155 110.996C185.732 111.629 184.322 111.872 182.925 111.723C181.539 111.546 180.268 111.026 179.113 110.163C177.977 109.29 177.075 108.104 176.407 106.603C175.739 105.103 175.471 103.634 175.602 102.198C175.733 100.762 176.211 99.475 177.035 98.3373C177.871 97.1714 179.009 96.2674 180.452 95.6253C181.757 95.0439 183.088 94.86 184.444 95.0736C185.792 95.2676 187.05 95.8635 188.218 96.8613C189.405 97.8505 190.39 99.222 191.171 100.976L180.15 105.883C180.794 107.067 181.672 107.832 182.783 108.178C183.914 108.515 185.035 108.437 186.146 107.942C187.042 107.543 187.696 107.018 188.107 106.368C188.51 105.699 188.733 104.969 188.778 104.178L192.219 104.117C192.157 105.079 191.934 105.995 191.551 106.866C191.188 107.729 190.637 108.511 189.899 109.213C189.181 109.907 188.266 110.501 187.155 110.996ZM179.235 103.278L186.514 100.037C186.143 99.3613 185.683 98.8774 185.132 98.5854C184.573 98.2738 183.988 98.1139 183.377 98.1057C182.767 98.0974 182.179 98.2191 181.613 98.4707C181.068 98.7137 180.564 99.0779 180.103 99.5634C179.653 100.021 179.337 100.57 179.156 101.211C178.974 101.853 179.001 102.541 179.235 103.278ZM196.581 106.379L190.073 91.7619L193.143 90.3952L194.213 92.4057C194.334 91.4179 194.673 90.5545 195.231 89.8155C195.801 89.0484 196.572 88.4479 197.547 88.014C198.716 87.4934 199.814 87.2847 200.841 87.388C201.887 87.4826 202.846 87.9315 203.717 88.7345C204.599 89.5094 205.392 90.6861 206.095 92.2647L209.765 100.509L206.491 101.966L203.159 94.4826C202.638 93.3132 202.103 92.4775 201.552 91.9753C201.013 91.445 200.443 91.1616 199.843 91.1251C199.262 91.08 198.65 91.2007 198.007 91.487C196.907 91.9534 196.22 92.6914 195.945 93.701C195.671 94.7106 195.842 95.9072 196.458 97.2909L199.855 104.921L196.581 106.379ZM219.055 96.7926C217.516 97.4781 216.168 97.623 215.011 97.2274C213.864 96.8036 212.97 95.8706 212.328 94.4284L208.905 86.74L206.479 87.8203L205.229 85.0139L207.656 83.9336L205.625 79.3732L208.87 77.9285L210.901 82.4889L214.847 80.7318L216.097 83.5382L212.15 85.2953L215.3 92.3698C215.604 93.0519 215.989 93.4989 216.457 93.7109C216.945 93.9142 217.5 93.877 218.124 93.5994C218.319 93.5126 218.516 93.3782 218.715 93.1961C218.914 93.014 219.112 92.7507 219.309 92.4062L221.614 94.3574C221.264 94.9338 220.874 95.4225 220.445 95.8235C220.025 96.244 219.562 96.567 219.055 96.7926Z" fill="black"/>
</g>
<g opacity="0.5" style="mix-blend-mode:overlay">
<path d="M64.8751 132.179L57.1439 114.814L50.8587 117.612L49.4791 114.514L65.4405 107.407L66.8202 110.506L60.535 113.304L68.2662 130.669L64.8751 132.179ZM79.7588 125.972C78.0048 126.753 76.4671 126.971 75.1455 126.625C73.8435 126.271 72.8757 125.382 72.2423 123.96C71.5655 122.439 71.5559 121.054 72.2136 119.804C72.8908 118.545 74.1453 117.508 75.9773 116.692L79.6899 115.039C79.0958 114.019 78.4292 113.335 77.6904 112.987C76.9515 112.639 76.1046 112.677 75.1497 113.102C74.4481 113.415 73.8992 113.834 73.5032 114.361C73.1071 114.888 72.8628 115.545 72.7702 116.334L69.4367 116.557C69.4622 115.775 69.6068 114.998 69.8706 114.227C70.1452 113.427 70.5985 112.688 71.2305 112.01C71.8821 111.323 72.7633 110.732 73.8741 110.238C75.2968 109.604 76.6115 109.357 77.8181 109.497C79.016 109.618 80.069 110.095 80.9771 110.928C81.9048 111.753 82.694 112.896 83.3447 114.358L86.8233 122.407L83.8123 123.747L82.9306 122.003C82.8445 122.859 82.5331 123.628 81.9964 124.311C81.4791 124.985 80.7333 125.539 79.7588 125.972ZM78.9446 123.042C79.6657 122.721 80.2297 122.283 80.6366 121.728C81.0542 121.146 81.2878 120.516 81.3371 119.84C81.406 119.156 81.2929 118.482 80.9979 117.82L80.8677 117.527L78.149 118.738C76.8433 119.319 76.0097 119.912 75.6484 120.517C75.2784 121.102 75.2409 121.725 75.5359 122.388C75.7875 122.953 76.2112 123.302 76.807 123.434C77.4135 123.537 78.1261 123.407 78.9446 123.042ZM95.7032 118.873C94.7287 119.307 93.7671 119.56 92.8185 119.632C91.8698 119.705 90.9859 119.608 90.167 119.342C89.3394 119.056 88.6091 118.623 87.9762 118.04L90.2522 115.521C90.7875 115.936 91.4202 116.203 92.1502 116.322C92.8998 116.432 93.6253 116.331 94.3269 116.018C95.087 115.68 95.6347 115.284 95.9702 114.831C96.3165 114.35 96.3855 113.876 96.1772 113.408C95.9776 112.96 95.6504 112.697 95.1955 112.619C94.7319 112.522 94.1438 112.539 93.4312 112.669L91.888 112.901C90.3481 113.166 89.0192 113.092 87.9012 112.679C86.7746 112.247 85.99 111.534 85.5475 110.54C84.8967 109.078 84.8612 107.739 85.4409 106.524C86.0401 105.3 87.2264 104.293 88.9999 103.503C89.8964 103.104 90.7757 102.876 91.6378 102.819C92.5106 102.734 93.3284 102.814 94.091 103.058C94.8449 103.283 95.4723 103.669 95.973 104.217L93.8009 106.655C93.3891 106.254 92.854 106.049 92.1955 106.039C91.5283 106.009 90.8634 106.141 90.2008 106.436C89.5382 106.731 89.0868 107.107 88.8466 107.565C88.5978 108.002 88.5862 108.475 88.8118 108.981C88.942 109.274 89.2291 109.473 89.6732 109.578C90.1087 109.665 90.6729 109.647 91.366 109.525L93.273 109.167C94.3321 108.975 95.2765 108.999 96.1062 109.236C96.9273 109.455 97.6229 109.81 98.1929 110.304C98.7542 110.778 99.1737 111.327 99.4514 111.95C99.8418 112.827 99.9312 113.71 99.7195 114.598C99.5273 115.478 99.0849 116.294 98.3922 117.046C97.6909 117.778 96.7945 118.388 95.7032 118.873ZM109.818 112.589C108.278 113.275 106.93 113.42 105.773 113.024C104.627 112.6 103.733 111.667 103.09 110.225L99.6674 102.537L97.241 103.617L95.9915 100.811L98.4179 99.7303L96.3874 95.1699L99.6324 93.7252L101.663 98.2856L105.609 96.5285L106.859 99.3349L102.912 101.092L106.062 108.166C106.366 108.849 106.752 109.296 107.22 109.508C107.707 109.711 108.263 109.674 108.886 109.396C109.081 109.309 109.278 109.175 109.477 108.993C109.677 108.811 109.875 108.547 110.071 108.203L112.376 110.154C112.026 110.73 111.636 111.219 111.208 111.62C110.788 112.041 110.324 112.364 109.818 112.589ZM121.796 107.256C120.373 107.89 118.963 108.132 117.566 107.984C116.18 107.807 114.909 107.287 113.754 106.423C112.618 105.551 111.716 104.365 111.048 102.864C110.38 101.363 110.112 99.895 110.243 98.4588C110.374 97.0226 110.852 95.7356 111.676 94.5979C112.512 93.432 113.65 92.528 115.093 91.8859C116.398 91.3045 117.729 91.1206 119.085 91.3342C120.433 91.5282 121.691 92.1242 122.859 93.122C124.046 94.1111 125.031 95.4826 125.812 97.2367L114.791 102.144C115.435 103.328 116.313 104.093 117.424 104.439C118.555 104.776 119.676 104.697 120.787 104.203C121.683 103.804 122.337 103.279 122.748 102.629C123.151 101.959 123.374 101.229 123.419 100.439L126.86 100.378C126.798 101.34 126.575 102.256 126.192 103.127C125.829 103.989 125.278 104.772 124.54 105.474C123.821 106.168 122.907 106.762 121.796 107.256ZM113.876 99.5383L121.155 96.2975C120.784 95.6219 120.324 95.1381 119.773 94.846C119.214 94.5345 118.629 94.3746 118.018 94.3663C117.408 94.358 116.82 94.4797 116.254 94.7313C115.709 94.9743 115.205 95.3385 114.744 95.824C114.294 96.2814 113.978 96.8307 113.797 97.472C113.615 98.1132 113.642 98.802 113.876 99.5383ZM144.127 97.384C142.938 97.9133 141.781 98.148 140.657 98.088C139.533 98.0281 138.526 97.7061 137.635 97.1218C136.744 96.5375 136.065 95.7192 135.596 94.6668C135.249 93.8872 135.078 93.1108 135.084 92.3375C135.101 91.5361 135.242 90.7497 135.505 89.9784C135.769 89.2071 136.127 88.4639 136.579 87.7488L138.913 83.9426C139.181 83.4962 139.451 83.026 139.721 82.5319C139.991 82.0379 140.182 81.5212 140.292 80.9817C140.421 80.4336 140.369 79.8965 140.135 79.3703C139.848 78.7271 139.389 78.3246 138.756 78.1625C138.143 77.9918 137.486 78.0626 136.784 78.375C136.161 78.6527 135.712 79.0862 135.437 79.6755C135.182 80.2562 135.184 80.8389 135.444 81.4235C135.679 81.9497 136.053 82.3437 136.566 82.6055C137.08 82.8672 137.686 83.1809 138.386 83.5465L144.175 86.3987L155.287 91.9247L151.399 93.6557L142.526 89.3045L136.585 86.3452C135.792 85.9277 135.111 85.5534 134.544 85.2223C133.967 84.8718 133.492 84.5115 133.117 84.1413C132.752 83.743 132.462 83.3002 132.245 82.813C131.846 81.9165 131.724 81.0133 131.879 80.1035C132.045 79.1655 132.437 78.3139 133.054 77.5489C133.671 76.7839 134.476 76.1801 135.47 75.7376C136.561 75.2517 137.617 75.0268 138.637 75.0629C139.677 75.0904 140.601 75.3562 141.409 75.8604C142.218 76.3646 142.834 77.0941 143.26 78.0491C143.607 78.8287 143.727 79.6506 143.622 80.5149C143.516 81.3793 143.227 82.3022 142.753 83.2837C142.299 84.2566 141.725 85.3292 141.033 86.5015L139.566 88.871C139.308 89.2893 139.093 89.7237 138.92 90.1744C138.747 90.625 138.65 91.0886 138.629 91.5652C138.607 92.0417 138.718 92.5528 138.961 93.0985C139.308 93.8781 139.858 94.4041 140.609 94.6765C141.372 94.9208 142.182 94.852 143.04 94.4702C143.936 94.0711 144.729 93.5431 145.417 92.8864C146.125 92.2209 146.679 91.4722 147.079 90.6401C147.49 89.7799 147.703 88.8679 147.717 87.904C147.732 86.9401 147.514 85.9514 147.062 84.938L150.19 83.5453C150.989 85.3383 151.262 87.1316 151.009 88.9253C150.757 90.719 150.039 92.3581 148.855 93.8426C147.691 95.3185 146.115 96.4989 144.127 97.384ZM76.9541 160.095C76.0576 160.494 75.1978 160.714 74.3748 160.753C73.5712 160.784 72.8162 160.688 72.1099 160.466C71.4036 160.243 70.7677 159.942 70.2021 159.564C69.656 159.176 69.1922 158.764 68.8107 158.327L71.0542 155.891C71.7608 156.534 72.491 156.968 73.245 157.193C74.0184 157.409 74.8046 157.339 75.6037 156.983C76.2468 156.697 76.7859 156.282 77.2209 155.738C77.6668 155.166 77.9273 154.466 78.0026 153.639C78.0779 152.811 77.8725 151.852 77.3866 150.76L71.5036 137.547L74.8947 136.037L81.2593 150.332C81.7278 151.384 81.9495 152.407 81.9241 153.399C81.9096 154.363 81.6968 155.275 81.2858 156.135C80.8748 156.995 80.2959 157.767 79.5491 158.449C78.7935 159.113 77.9286 159.661 76.9541 160.095ZM93.315 152.776C92.1652 153.288 91.0671 153.496 90.0208 153.402C88.9941 153.299 88.0353 152.85 87.1445 152.055C86.2537 151.261 85.4613 150.084 84.7671 148.525L81.0967 140.281L84.3708 138.824L87.7028 146.307C88.2148 147.457 88.7503 148.293 89.3095 148.815C89.8687 149.336 90.4386 149.62 91.0191 149.665C91.6191 149.701 92.231 149.581 92.8546 149.303C93.9742 148.828 94.6712 148.085 94.9456 147.076C95.22 146.066 95.0492 144.87 94.4331 143.486L91.0361 135.856L94.281 134.411L100.789 149.028L97.7193 150.395L96.649 148.384C96.5283 149.372 96.1834 150.249 95.6142 151.017C95.0559 151.756 94.2895 152.342 93.315 152.776ZM110.371 145.182C109.046 145.772 107.748 145.976 106.476 145.795C105.215 145.586 104.046 145.032 102.969 144.134C101.912 143.227 101.04 142.004 100.355 140.464C99.6604 138.905 99.3345 137.439 99.3769 136.066C99.4302 134.664 99.8052 133.435 100.502 132.377C101.21 131.291 102.226 130.454 103.551 129.864C104.565 129.412 105.561 129.237 106.54 129.338C107.511 129.42 108.427 129.748 109.289 130.321L105.723 122.311L108.968 120.866L118.079 141.33L114.98 142.71L113.874 140.54C113.751 141.575 113.39 142.495 112.791 143.299C112.211 144.094 111.404 144.722 110.371 145.182ZM109.862 141.836C110.583 141.515 111.144 141.043 111.544 140.421C111.936 139.78 112.14 139.058 112.157 138.257C112.185 137.427 112.023 136.565 111.671 135.671L111.489 135.262C111.06 134.402 110.532 133.715 109.905 133.199C109.29 132.656 108.617 132.325 107.887 132.207C107.157 132.088 106.422 132.193 105.681 132.523C104.902 132.87 104.287 133.378 103.837 134.045C103.406 134.704 103.171 135.462 103.133 136.32C103.114 137.169 103.309 138.051 103.716 138.967C104.124 139.883 104.66 140.614 105.323 141.16C105.986 141.705 106.711 142.048 107.497 142.188C108.294 142.3 109.083 142.183 109.862 141.836ZM130.756 143.147C129.723 143.607 128.749 143.935 127.833 144.133C126.936 144.322 126.153 144.425 125.484 144.443C124.814 144.461 124.276 144.432 123.869 144.357L123.955 141.166C124.288 141.181 124.722 141.186 125.257 141.181C125.821 141.187 126.449 141.13 127.142 141.008C127.835 140.886 128.571 140.652 129.351 140.305C130.189 139.932 130.861 139.422 131.367 138.776C131.883 138.15 132.169 137.403 132.227 136.537C132.285 135.671 132.071 134.692 131.585 133.6L130.934 132.139C130.792 133.183 130.416 134.121 129.805 134.953C129.206 135.757 128.39 136.389 127.357 136.849C126.032 137.439 124.737 137.653 123.474 137.491C122.231 137.321 121.088 136.826 120.046 136.006C119.014 135.157 118.182 134.022 117.548 132.599C116.871 131.079 116.558 129.642 116.61 128.288C116.68 126.926 117.064 125.716 117.761 124.658C118.477 123.592 119.498 122.764 120.823 122.174C121.856 121.714 122.876 121.54 123.883 121.652C124.91 121.755 125.872 122.132 126.769 122.784L125.715 120.416L128.989 118.958L134.82 132.055C135.558 133.711 135.871 135.253 135.759 136.681C135.656 138.128 135.169 139.395 134.299 140.483C133.438 141.591 132.257 142.479 130.756 143.147ZM127.027 133.668C127.767 133.338 128.323 132.857 128.696 132.225C129.087 131.583 129.291 130.862 129.308 130.06C129.316 129.239 129.125 128.39 128.735 127.513C128.336 126.617 127.833 125.907 127.226 125.383C126.61 124.84 125.937 124.509 125.207 124.39C124.469 124.252 123.729 124.348 122.988 124.677C122.209 125.024 121.604 125.527 121.173 126.186C120.753 126.817 120.52 127.551 120.473 128.389C120.437 129.2 120.618 130.053 121.017 130.949C121.408 131.826 121.92 132.532 122.555 133.067C123.201 133.573 123.913 133.887 124.691 134.008C125.468 134.128 126.247 134.015 127.027 133.668ZM145.788 129.413C144.366 130.047 142.956 130.289 141.559 130.141C140.172 129.964 138.901 129.444 137.746 128.58C136.611 127.708 135.709 126.522 135.041 125.021C134.373 123.52 134.104 122.052 134.235 120.616C134.366 119.179 134.844 117.893 135.669 116.755C136.504 115.589 137.643 114.685 139.085 114.043C140.391 113.461 141.722 113.278 143.078 113.491C144.425 113.685 145.683 114.281 146.851 115.279C148.039 116.268 149.023 117.64 149.804 119.394L138.783 124.3C139.427 125.485 140.305 126.25 141.416 126.596C142.547 126.933 143.668 126.854 144.779 126.36C145.676 125.961 146.329 125.436 146.741 124.786C147.143 124.116 147.367 123.386 147.412 122.596L150.852 122.535C150.79 123.497 150.568 124.413 150.185 125.284C149.822 126.146 149.271 126.929 148.533 127.631C147.814 128.325 146.899 128.919 145.788 129.413ZM137.869 121.695L145.148 118.454C144.777 117.779 144.316 117.295 143.766 117.003C143.207 116.691 142.622 116.531 142.011 116.523C141.4 116.515 140.812 116.637 140.247 116.888C139.701 117.131 139.198 117.495 138.737 117.981C138.287 118.438 137.971 118.988 137.789 119.629C137.608 120.27 137.634 120.959 137.869 121.695ZM155.214 124.796L148.707 110.179L151.776 108.813L152.794 110.706C152.904 109.747 153.223 108.916 153.751 108.214C154.279 107.511 154.992 106.961 155.888 106.562C157.057 106.041 158.168 105.862 159.221 106.023C160.274 106.185 161.224 106.72 162.072 107.627C162.041 106.403 162.293 105.345 162.83 104.452C163.367 103.559 164.161 102.878 165.213 102.41C166.909 101.655 168.458 101.619 169.86 102.303C171.253 102.967 172.439 104.424 173.417 106.674L177.139 115.034L173.895 116.479L170.563 108.995C170.042 107.826 169.516 106.986 168.985 106.475C168.445 105.945 167.905 105.648 167.363 105.586C166.822 105.523 166.268 105.618 165.703 105.87C164.681 106.301 164.052 107.013 163.817 108.006C163.601 108.989 163.801 110.173 164.417 111.556L167.814 119.186L164.54 120.644L161.208 113.16C160.687 111.991 160.161 111.151 159.63 110.64C159.11 110.101 158.579 109.8 158.038 109.738C157.496 109.675 156.943 109.77 156.378 110.022C155.356 110.453 154.727 111.165 154.491 112.158C154.275 113.141 154.475 114.325 155.091 115.708L158.489 123.338L155.214 124.796ZM187.155 110.996C185.732 111.629 184.322 111.872 182.925 111.723C181.539 111.546 180.268 111.026 179.113 110.163C177.977 109.29 177.075 108.104 176.407 106.603C175.739 105.103 175.471 103.634 175.602 102.198C175.733 100.762 176.211 99.475 177.035 98.3373C177.871 97.1714 179.009 96.2674 180.452 95.6253C181.757 95.0439 183.088 94.86 184.444 95.0736C185.792 95.2676 187.05 95.8635 188.218 96.8613C189.405 97.8505 190.39 99.222 191.171 100.976L180.15 105.883C180.794 107.067 181.672 107.832 182.783 108.178C183.914 108.515 185.035 108.437 186.146 107.942C187.042 107.543 187.696 107.018 188.107 106.368C188.51 105.699 188.733 104.969 188.778 104.178L192.219 104.117C192.157 105.079 191.934 105.995 191.551 106.866C191.188 107.729 190.637 108.511 189.899 109.213C189.181 109.907 188.266 110.501 187.155 110.996ZM179.235 103.278L186.514 100.037C186.143 99.3613 185.683 98.8774 185.132 98.5854C184.573 98.2738 183.988 98.1139 183.377 98.1057C182.767 98.0974 182.179 98.2191 181.613 98.4707C181.068 98.7137 180.564 99.0779 180.103 99.5634C179.653 100.021 179.337 100.57 179.156 101.211C178.974 101.853 179.001 102.541 179.235 103.278ZM196.581 106.379L190.073 91.7619L193.143 90.3952L194.213 92.4057C194.334 91.4179 194.673 90.5545 195.231 89.8155C195.801 89.0484 196.572 88.4479 197.547 88.014C198.716 87.4934 199.814 87.2847 200.841 87.388C201.887 87.4826 202.846 87.9315 203.717 88.7345C204.599 89.5094 205.392 90.6861 206.095 92.2647L209.765 100.509L206.491 101.966L203.159 94.4826C202.638 93.3132 202.103 92.4775 201.552 91.9753C201.013 91.445 200.443 91.1616 199.843 91.1251C199.262 91.08 198.65 91.2007 198.007 91.487C196.907 91.9534 196.22 92.6914 195.945 93.701C195.671 94.7106 195.842 95.9072 196.458 97.2909L199.855 104.921L196.581 106.379ZM219.055 96.7926C217.516 97.4781 216.168 97.623 215.011 97.2274C213.864 96.8036 212.97 95.8706 212.328 94.4284L208.905 86.74L206.479 87.8203L205.229 85.0139L207.656 83.9336L205.625 79.3732L208.87 77.9285L210.901 82.4889L214.847 80.7318L216.097 83.5382L212.15 85.2953L215.3 92.3698C215.604 93.0519 215.989 93.4989 216.457 93.7109C216.945 93.9142 217.5 93.877 218.124 93.5994C218.319 93.5126 218.516 93.3782 218.715 93.1961C218.914 93.014 219.112 92.7507 219.309 92.4062L221.614 94.3574C221.264 94.9338 220.874 95.4225 220.445 95.8235C220.025 96.244 219.562 96.567 219.055 96.7926Z" fill="black"/>
</g>
<g opacity="0.5" style="mix-blend-mode:overlay">
<path d="M64.8751 132.179L57.1439 114.814L50.8587 117.612L49.4791 114.514L65.4405 107.407L66.8202 110.506L60.535 113.304L68.2662 130.669L64.8751 132.179ZM79.7588 125.972C78.0048 126.753 76.4671 126.971 75.1455 126.625C73.8435 126.271 72.8757 125.382 72.2423 123.96C71.5655 122.439 71.5559 121.054 72.2136 119.804C72.8908 118.545 74.1453 117.508 75.9773 116.692L79.6899 115.039C79.0958 114.019 78.4292 113.335 77.6904 112.987C76.9515 112.639 76.1046 112.677 75.1497 113.102C74.4481 113.415 73.8992 113.834 73.5032 114.361C73.1071 114.888 72.8628 115.545 72.7702 116.334L69.4367 116.557C69.4622 115.775 69.6068 114.998 69.8706 114.227C70.1452 113.427 70.5985 112.688 71.2305 112.01C71.8821 111.323 72.7633 110.732 73.8741 110.238C75.2968 109.604 76.6115 109.357 77.8181 109.497C79.016 109.618 80.069 110.095 80.9771 110.928C81.9048 111.753 82.694 112.896 83.3447 114.358L86.8233 122.407L83.8123 123.747L82.9306 122.003C82.8445 122.859 82.5331 123.628 81.9964 124.311C81.4791 124.985 80.7333 125.539 79.7588 125.972ZM78.9446 123.042C79.6657 122.721 80.2297 122.283 80.6366 121.728C81.0542 121.146 81.2878 120.516 81.3371 119.84C81.406 119.156 81.2929 118.482 80.9979 117.82L80.8677 117.527L78.149 118.738C76.8433 119.319 76.0097 119.912 75.6484 120.517C75.2784 121.102 75.2409 121.725 75.5359 122.388C75.7875 122.953 76.2112 123.302 76.807 123.434C77.4135 123.537 78.1261 123.407 78.9446 123.042ZM95.7032 118.873C94.7287 119.307 93.7671 119.56 92.8185 119.632C91.8698 119.705 90.9859 119.608 90.167 119.342C89.3394 119.056 88.6091 118.623 87.9762 118.04L90.2522 115.521C90.7875 115.936 91.4202 116.203 92.1502 116.322C92.8998 116.432 93.6253 116.331 94.3269 116.018C95.087 115.68 95.6347 115.284 95.9702 114.831C96.3165 114.35 96.3855 113.876 96.1772 113.408C95.9776 112.96 95.6504 112.697 95.1955 112.619C94.7319 112.522 94.1438 112.539 93.4312 112.669L91.888 112.901C90.3481 113.166 89.0192 113.092 87.9012 112.679C86.7746 112.247 85.99 111.534 85.5475 110.54C84.8967 109.078 84.8612 107.739 85.4409 106.524C86.0401 105.3 87.2264 104.293 88.9999 103.503C89.8964 103.104 90.7757 102.876 91.6378 102.819C92.5106 102.734 93.3284 102.814 94.091 103.058C94.8449 103.283 95.4723 103.669 95.973 104.217L93.8009 106.655C93.3891 106.254 92.854 106.049 92.1955 106.039C91.5283 106.009 90.8634 106.141 90.2008 106.436C89.5382 106.731 89.0868 107.107 88.8466 107.565C88.5978 108.002 88.5862 108.475 88.8118 108.981C88.942 109.274 89.2291 109.473 89.6732 109.578C90.1087 109.665 90.6729 109.647 91.366 109.525L93.273 109.167C94.3321 108.975 95.2765 108.999 96.1062 109.236C96.9273 109.455 97.6229 109.81 98.1929 110.304C98.7542 110.778 99.1737 111.327 99.4514 111.95C99.8418 112.827 99.9312 113.71 99.7195 114.598C99.5273 115.478 99.0849 116.294 98.3922 117.046C97.6909 117.778 96.7945 118.388 95.7032 118.873ZM109.818 112.589C108.278 113.275 106.93 113.42 105.773 113.024C104.627 112.6 103.733 111.667 103.09 110.225L99.6674 102.537L97.241 103.617L95.9915 100.811L98.4179 99.7303L96.3874 95.1699L99.6324 93.7252L101.663 98.2856L105.609 96.5285L106.859 99.3349L102.912 101.092L106.062 108.166C106.366 108.849 106.752 109.296 107.22 109.508C107.707 109.711 108.263 109.674 108.886 109.396C109.081 109.309 109.278 109.175 109.477 108.993C109.677 108.811 109.875 108.547 110.071 108.203L112.376 110.154C112.026 110.73 111.636 111.219 111.208 111.62C110.788 112.041 110.324 112.364 109.818 112.589ZM121.796 107.256C120.373 107.89 118.963 108.132 117.566 107.984C116.18 107.807 114.909 107.287 113.754 106.423C112.618 105.551 111.716 104.365 111.048 102.864C110.38 101.363 110.112 99.895 110.243 98.4588C110.374 97.0226 110.852 95.7356 111.676 94.5979C112.512 93.432 113.65 92.528 115.093 91.8859C116.398 91.3045 117.729 91.1206 119.085 91.3342C120.433 91.5282 121.691 92.1242 122.859 93.122C124.046 94.1111 125.031 95.4826 125.812 97.2367L114.791 102.144C115.435 103.328 116.313 104.093 117.424 104.439C118.555 104.776 119.676 104.697 120.787 104.203C121.683 103.804 122.337 103.279 122.748 102.629C123.151 101.959 123.374 101.229 123.419 100.439L126.86 100.378C126.798 101.34 126.575 102.256 126.192 103.127C125.829 103.989 125.278 104.772 124.54 105.474C123.821 106.168 122.907 106.762 121.796 107.256ZM113.876 99.5383L121.155 96.2975C120.784 95.6219 120.324 95.1381 119.773 94.846C119.214 94.5345 118.629 94.3746 118.018 94.3663C117.408 94.358 116.82 94.4797 116.254 94.7313C115.709 94.9743 115.205 95.3385 114.744 95.824C114.294 96.2814 113.978 96.8307 113.797 97.472C113.615 98.1132 113.642 98.802 113.876 99.5383ZM144.127 97.384C142.938 97.9133 141.781 98.148 140.657 98.088C139.533 98.0281 138.526 97.7061 137.635 97.1218C136.744 96.5375 136.065 95.7192 135.596 94.6668C135.249 93.8872 135.078 93.1108 135.084 92.3375C135.101 91.5361 135.242 90.7497 135.505 89.9784C135.769 89.2071 136.127 88.4639 136.579 87.7488L138.913 83.9426C139.181 83.4962 139.451 83.026 139.721 82.5319C139.991 82.0379 140.182 81.5212 140.292 80.9817C140.421 80.4336 140.369 79.8965 140.135 79.3703C139.848 78.7271 139.389 78.3246 138.756 78.1625C138.143 77.9918 137.486 78.0626 136.784 78.375C136.161 78.6527 135.712 79.0862 135.437 79.6755C135.182 80.2562 135.184 80.8389 135.444 81.4235C135.679 81.9497 136.053 82.3437 136.566 82.6055C137.08 82.8672 137.686 83.1809 138.386 83.5465L144.175 86.3987L155.287 91.9247L151.399 93.6557L142.526 89.3045L136.585 86.3452C135.792 85.9277 135.111 85.5534 134.544 85.2223C133.967 84.8718 133.492 84.5115 133.117 84.1413C132.752 83.743 132.462 83.3002 132.245 82.813C131.846 81.9165 131.724 81.0133 131.879 80.1035C132.045 79.1655 132.437 78.3139 133.054 77.5489C133.671 76.7839 134.476 76.1801 135.47 75.7376C136.561 75.2517 137.617 75.0268 138.637 75.0629C139.677 75.0904 140.601 75.3562 141.409 75.8604C142.218 76.3646 142.834 77.0941 143.26 78.0491C143.607 78.8287 143.727 79.6506 143.622 80.5149C143.516 81.3793 143.227 82.3022 142.753 83.2837C142.299 84.2566 141.725 85.3292 141.033 86.5015L139.566 88.871C139.308 89.2893 139.093 89.7237 138.92 90.1744C138.747 90.625 138.65 91.0886 138.629 91.5652C138.607 92.0417 138.718 92.5528 138.961 93.0985C139.308 93.8781 139.858 94.4041 140.609 94.6765C141.372 94.9208 142.182 94.852 143.04 94.4702C143.936 94.0711 144.729 93.5431 145.417 92.8864C146.125 92.2209 146.679 91.4722 147.079 90.6401C147.49 89.7799 147.703 88.8679 147.717 87.904C147.732 86.9401 147.514 85.9514 147.062 84.938L150.19 83.5453C150.989 85.3383 151.262 87.1316 151.009 88.9253C150.757 90.719 150.039 92.3581 148.855 93.8426C147.691 95.3185 146.115 96.4989 144.127 97.384ZM76.9541 160.095C76.0576 160.494 75.1978 160.714 74.3748 160.753C73.5712 160.784 72.8162 160.688 72.1099 160.466C71.4036 160.243 70.7677 159.942 70.2021 159.564C69.656 159.176 69.1922 158.764 68.8107 158.327L71.0542 155.891C71.7608 156.534 72.491 156.968 73.245 157.193C74.0184 157.409 74.8046 157.339 75.6037 156.983C76.2468 156.697 76.7859 156.282 77.2209 155.738C77.6668 155.166 77.9273 154.466 78.0026 153.639C78.0779 152.811 77.8725 151.852 77.3866 150.76L71.5036 137.547L74.8947 136.037L81.2593 150.332C81.7278 151.384 81.9495 152.407 81.9241 153.399C81.9096 154.363 81.6968 155.275 81.2858 156.135C80.8748 156.995 80.2959 157.767 79.5491 158.449C78.7935 159.113 77.9286 159.661 76.9541 160.095ZM93.315 152.776C92.1652 153.288 91.0671 153.496 90.0208 153.402C88.9941 153.299 88.0353 152.85 87.1445 152.055C86.2537 151.261 85.4613 150.084 84.7671 148.525L81.0967 140.281L84.3708 138.824L87.7028 146.307C88.2148 147.457 88.7503 148.293 89.3095 148.815C89.8687 149.336 90.4386 149.62 91.0191 149.665C91.6191 149.701 92.231 149.581 92.8546 149.303C93.9742 148.828 94.6712 148.085 94.9456 147.076C95.22 146.066 95.0492 144.87 94.4331 143.486L91.0361 135.856L94.281 134.411L100.789 149.028L97.7193 150.395L96.649 148.384C96.5283 149.372 96.1834 150.249 95.6142 151.017C95.0559 151.756 94.2895 152.342 93.315 152.776ZM110.371 145.182C109.046 145.772 107.748 145.976 106.476 145.795C105.215 145.586 104.046 145.032 102.969 144.134C101.912 143.227 101.04 142.004 100.355 140.464C99.6604 138.905 99.3345 137.439 99.3769 136.066C99.4302 134.664 99.8052 133.435 100.502 132.377C101.21 131.291 102.226 130.454 103.551 129.864C104.565 129.412 105.561 129.237 106.54 129.338C107.511 129.42 108.427 129.748 109.289 130.321L105.723 122.311L108.968 120.866L118.079 141.33L114.98 142.71L113.874 140.54C113.751 141.575 113.39 142.495 112.791 143.299C112.211 144.094 111.404 144.722 110.371 145.182ZM109.862 141.836C110.583 141.515 111.144 141.043 111.544 140.421C111.936 139.78 112.14 139.058 112.157 138.257C112.185 137.427 112.023 136.565 111.671 135.671L111.489 135.262C111.06 134.402 110.532 133.715 109.905 133.199C109.29 132.656 108.617 132.325 107.887 132.207C107.157 132.088 106.422 132.193 105.681 132.523C104.902 132.87 104.287 133.378 103.837 134.045C103.406 134.704 103.171 135.462 103.133 136.32C103.114 137.169 103.309 138.051 103.716 138.967C104.124 139.883 104.66 140.614 105.323 141.16C105.986 141.705 106.711 142.048 107.497 142.188C108.294 142.3 109.083 142.183 109.862 141.836ZM130.756 143.147C129.723 143.607 128.749 143.935 127.833 144.133C126.936 144.322 126.153 144.425 125.484 144.443C124.814 144.461 124.276 144.432 123.869 144.357L123.955 141.166C124.288 141.181 124.722 141.186 125.257 141.181C125.821 141.187 126.449 141.13 127.142 141.008C127.835 140.886 128.571 140.652 129.351 140.305C130.189 139.932 130.861 139.422 131.367 138.776C131.883 138.15 132.169 137.403 132.227 136.537C132.285 135.671 132.071 134.692 131.585 133.6L130.934 132.139C130.792 133.183 130.416 134.121 129.805 134.953C129.206 135.757 128.39 136.389 127.357 136.849C126.032 137.439 124.737 137.653 123.474 137.491C122.231 137.321 121.088 136.826 120.046 136.006C119.014 135.157 118.182 134.022 117.548 132.599C116.871 131.079 116.558 129.642 116.61 128.288C116.68 126.926 117.064 125.716 117.761 124.658C118.477 123.592 119.498 122.764 120.823 122.174C121.856 121.714 122.876 121.54 123.883 121.652C124.91 121.755 125.872 122.132 126.769 122.784L125.715 120.416L128.989 118.958L134.82 132.055C135.558 133.711 135.871 135.253 135.759 136.681C135.656 138.128 135.169 139.395 134.299 140.483C133.438 141.591 132.257 142.479 130.756 143.147ZM127.027 133.668C127.767 133.338 128.323 132.857 128.696 132.225C129.087 131.583 129.291 130.862 129.308 130.06C129.316 129.239 129.125 128.39 128.735 127.513C128.336 126.617 127.833 125.907 127.226 125.383C126.61 124.84 125.937 124.509 125.207 124.39C124.469 124.252 123.729 124.348 122.988 124.677C122.209 125.024 121.604 125.527 121.173 126.186C120.753 126.817 120.52 127.551 120.473 128.389C120.437 129.2 120.618 130.053 121.017 130.949C121.408 131.826 121.92 132.532 122.555 133.067C123.201 133.573 123.913 133.887 124.691 134.008C125.468 134.128 126.247 134.015 127.027 133.668ZM145.788 129.413C144.366 130.047 142.956 130.289 141.559 130.141C140.172 129.964 138.901 129.444 137.746 128.58C136.611 127.708 135.709 126.522 135.041 125.021C134.373 123.52 134.104 122.052 134.235 120.616C134.366 119.179 134.844 117.893 135.669 116.755C136.504 115.589 137.643 114.685 139.085 114.043C140.391 113.461 141.722 113.278 143.078 113.491C144.425 113.685 145.683 114.281 146.851 115.279C148.039 116.268 149.023 117.64 149.804 119.394L138.783 124.3C139.427 125.485 140.305 126.25 141.416 126.596C142.547 126.933 143.668 126.854 144.779 126.36C145.676 125.961 146.329 125.436 146.741 124.786C147.143 124.116 147.367 123.386 147.412 122.596L150.852 122.535C150.79 123.497 150.568 124.413 150.185 125.284C149.822 126.146 149.271 126.929 148.533 127.631C147.814 128.325 146.899 128.919 145.788 129.413ZM137.869 121.695L145.148 118.454C144.777 117.779 144.316 117.295 143.766 117.003C143.207 116.691 142.622 116.531 142.011 116.523C141.4 116.515 140.812 116.637 140.247 116.888C139.701 117.131 139.198 117.495 138.737 117.981C138.287 118.438 137.971 118.988 137.789 119.629C137.608 120.27 137.634 120.959 137.869 121.695ZM155.214 124.796L148.707 110.179L151.776 108.813L152.794 110.706C152.904 109.747 153.223 108.916 153.751 108.214C154.279 107.511 154.992 106.961 155.888 106.562C157.057 106.041 158.168 105.862 159.221 106.023C160.274 106.185 161.224 106.72 162.072 107.627C162.041 106.403 162.293 105.345 162.83 104.452C163.367 103.559 164.161 102.878 165.213 102.41C166.909 101.655 168.458 101.619 169.86 102.303C171.253 102.967 172.439 104.424 173.417 106.674L177.139 115.034L173.895 116.479L170.563 108.995C170.042 107.826 169.516 106.986 168.985 106.475C168.445 105.945 167.905 105.648 167.363 105.586C166.822 105.523 166.268 105.618 165.703 105.87C164.681 106.301 164.052 107.013 163.817 108.006C163.601 108.989 163.801 110.173 164.417 111.556L167.814 119.186L164.54 120.644L161.208 113.16C160.687 111.991 160.161 111.151 159.63 110.64C159.11 110.101 158.579 109.8 158.038 109.738C157.496 109.675 156.943 109.77 156.378 110.022C155.356 110.453 154.727 111.165 154.491 112.158C154.275 113.141 154.475 114.325 155.091 115.708L158.489 123.338L155.214 124.796ZM187.155 110.996C185.732 111.629 184.322 111.872 182.925 111.723C181.539 111.546 180.268 111.026 179.113 110.163C177.977 109.29 177.075 108.104 176.407 106.603C175.739 105.103 175.471 103.634 175.602 102.198C175.733 100.762 176.211 99.475 177.035 98.3373C177.871 97.1714 179.009 96.2674 180.452 95.6253C181.757 95.0439 183.088 94.86 184.444 95.0736C185.792 95.2676 187.05 95.8635 188.218 96.8613C189.405 97.8505 190.39 99.222 191.171 100.976L180.15 105.883C180.794 107.067 181.672 107.832 182.783 108.178C183.914 108.515 185.035 108.437 186.146 107.942C187.042 107.543 187.696 107.018 188.107 106.368C188.51 105.699 188.733 104.969 188.778 104.178L192.219 104.117C192.157 105.079 191.934 105.995 191.551 106.866C191.188 107.729 190.637 108.511 189.899 109.213C189.181 109.907 188.266 110.501 187.155 110.996ZM179.235 103.278L186.514 100.037C186.143 99.3613 185.683 98.8774 185.132 98.5854C184.573 98.2738 183.988 98.1139 183.377 98.1057C182.767 98.0974 182.179 98.2191 181.613 98.4707C181.068 98.7137 180.564 99.0779 180.103 99.5634C179.653 100.021 179.337 100.57 179.156 101.211C178.974 101.853 179.001 102.541 179.235 103.278ZM196.581 106.379L190.073 91.7619L193.143 90.3952L194.213 92.4057C194.334 91.4179 194.673 90.5545 195.231 89.8155C195.801 89.0484 196.572 88.4479 197.547 88.014C198.716 87.4934 199.814 87.2847 200.841 87.388C201.887 87.4826 202.846 87.9315 203.717 88.7345C204.599 89.5094 205.392 90.6861 206.095 92.2647L209.765 100.509L206.491 101.966L203.159 94.4826C202.638 93.3132 202.103 92.4775 201.552 91.9753C201.013 91.445 200.443 91.1616 199.843 91.1251C199.262 91.08 198.65 91.2007 198.007 91.487C196.907 91.9534 196.22 92.6914 195.945 93.701C195.671 94.7106 195.842 95.9072 196.458 97.2909L199.855 104.921L196.581 106.379ZM219.055 96.7926C217.516 97.4781 216.168 97.623 215.011 97.2274C213.864 96.8036 212.97 95.8706 212.328 94.4284L208.905 86.74L206.479 87.8203L205.229 85.0139L207.656 83.9336L205.625 79.3732L208.87 77.9285L210.901 82.4889L214.847 80.7318L216.097 83.5382L212.15 85.2953L215.3 92.3698C215.604 93.0519 215.989 93.4989 216.457 93.7109C216.945 93.9142 217.5 93.877 218.124 93.5994C218.319 93.5126 218.516 93.3782 218.715 93.1961C218.914 93.014 219.112 92.7507 219.309 92.4062L221.614 94.3574C221.264 94.9338 220.874 95.4225 220.445 95.8235C220.025 96.244 219.562 96.567 219.055 96.7926Z" fill="black"/>
</g>
</g>
<rect x="24.6601" y="101.601" width="199" height="409.289" rx="14.9341" transform="rotate(-24 24.6601 101.601)" stroke="url(#paint0_linear_141_4311)" shape-rendering="crispEdges"/>
</g>
<defs>
<filter id="filter0_d_141_4311" x="-60" y="-64" width="517.589" height="624.166" filterUnits="userSpaceOnUse" color-interpolation-filters="sRGB">
<feFlood flood-opacity="0" result="BackgroundImageFix"/>
<feColorMatrix in="SourceAlpha" type="matrix" values="0 0 0 0 0 0 0 0 0 0 0 0 0 0 0 0 0 0 127 0" result="hardAlpha"/>
<feOffset dy="4"/>
<feGaussianBlur stdDeviation="12"/>
<feComposite in2="hardAlpha" operator="out"/>
<feColorMatrix type="matrix" values="0 0 0 0 0 0 0 0 0 0 0 0 0 0 0 0 0 0 0.06 0"/>
<feBlend mode="normal" in2="BackgroundImageFix" result="effect1_dropShadow_141_4311"/>
<feBlend mode="normal" in="SourceGraphic" in2="effect1_dropShadow_141_4311" result="shape"/>
</filter>
<clipPath id="bgblur_1_141_4311_clip_path" transform="translate(60 64)"><rect x="24" y="101.347" width="200" height="410.289" rx="15.4341" transform="rotate(-24 24 101.347)"/>
</clipPath><filter id="filter1_f_141_4311" x="-328.359" y="-171.157" width="606.622" height="617.064" filterUnits="userSpaceOnUse" color-interpolation-filters="sRGB">
<feFlood flood-opacity="0" result="BackgroundImageFix"/>
<feBlend mode="normal" in="SourceGraphic" in2="BackgroundImageFix" result="shape"/>
<feGaussianBlur stdDeviation="49.5177" result="effect1_foregroundBlur_141_4311"/>
</filter>
<filter id="filter2_f_141_4311" x="4.70671" y="-148.894" width="435.787" height="424.814" filterUnits="userSpaceOnUse" color-interpolation-filters="sRGB">
<feFlood flood-opacity="0" result="BackgroundImageFix"/>
<feBlend mode="normal" in="SourceGraphic" in2="BackgroundImageFix" result="shape"/>
<feGaussianBlur stdDeviation="33.4405" result="effect1_foregroundBlur_141_4311"/>
</filter>
<linearGradient id="paint0_linear_141_4311" x1="124" y1="101.347" x2="124" y2="511.637" gradientUnits="userSpaceOnUse">
<stop stop-color="white"/>
<stop offset="1" stop-color="#E6D4D4" stop-opacity="0.8"/>
</linearGradient>
<clipPath id="clip0_141_4311">
<rect x="24" y="101.347" width="200" height="410.289" rx="15.4341" transform="rotate(-24 24 101.347)" fill="white"/>
</clipPath>
</defs>
</svg>
