<svg width="202" height="199" viewBox="0 0 202 199" fill="none" xmlns="http://www.w3.org/2000/svg">
<path d="M100.555 102.15V0.563141" stroke="#E0E0E0" stroke-width="1.0582"/>
<path d="M100.555 102.151L165.846 24.3729" stroke="#E0E0E0" stroke-width="1.0582"/>
<path d="M100.555 102.15L200.555 84.4782" stroke="#E0E0E0" stroke-width="1.0582"/>
<path d="M100.555 102.151L188.491 152.944" stroke="#E0E0E0" stroke-width="1.0582"/>
<path d="M100.555 102.151L135.264 197.6" stroke="#E0E0E0" stroke-width="1.0582"/>
<path d="M100.556 102.151L65.8466 197.6" stroke="#E0E0E0" stroke-width="1.0582"/>
<path d="M100.554 102.151L12.6174 152.944" stroke="#E0E0E0" stroke-width="1.0582"/>
<path d="M100.555 102.15L0.554642 84.4782" stroke="#E0E0E0" stroke-width="1.0582"/>
<path d="M100.555 102.151L35.2639 24.3729" stroke="#E0E0E0" stroke-width="1.0582"/>
<path d="M100.555 48.9286L134.923 61.4374L153.209 93.1111L146.859 129.129L118.842 152.638H82.2681L54.2511 129.129L47.9002 93.1111L66.187 61.4374L100.555 48.9286Z" fill="#73BC9A" fill-opacity="0.06"/>
<path d="M100.555 48.9286L134.923 61.4374L153.209 93.1111L146.859 129.129L118.842 152.638H82.2681L54.2511 129.129L47.9002 93.1111L66.187 61.4374L100.555 48.9286Z" fill="url(#paint0_radial_146_5315)" fill-opacity="0.2"/>
<path d="M134.739 61.6551L152.929 93.161L146.612 128.986L118.744 152.371H82.3652L54.4971 128.987L48.1797 93.161L66.3701 61.6541L100.555 49.2127L134.739 61.6551Z" stroke="#74BC9C" stroke-opacity="0.5" stroke-width="0.534669"/>
<path d="M100.554 0.563187L165.845 24.3727L200.554 84.4784L188.491 152.944L135.263 197.6H65.8454L12.618 152.944L0.554489 84.4784L35.2634 24.3727L100.554 0.563187Z" stroke="#E6E6E6" stroke-width="1.0582"/>
<path opacity="0.79" d="M110.873 90.161L110.904 90.2889L111.024 90.3426L127.634 97.7274L124.385 116.153L110.049 128.183L95.3627 117.683L95.3032 117.64L95.2299 117.635L76.5786 116.037L48.6958 93.3983L82.7719 81.3495L82.8657 81.3163L82.9145 81.2303L100.988 49.6424L110.873 90.161Z" fill="#7C9EDC" fill-opacity="0.31" stroke="#7C9EDC" stroke-width="0.534669"/>
<g filter="url(#filter0_d_146_5315)">
<path d="M100.718 53.8965C103.172 53.8965 105.162 51.9067 105.162 49.4521C105.162 46.9975 103.172 45.0076 100.718 45.0076C98.2629 45.0076 96.2731 46.9975 96.2731 49.4521C96.2731 51.9067 98.2629 53.8965 100.718 53.8965Z" fill="#6FBF8F"/>
</g>
<g filter="url(#filter1_d_146_5315)">
<path d="M100.718 52.7854C102.558 52.7854 104.051 51.293 104.051 49.4521C104.051 47.6111 102.558 46.1188 100.718 46.1188C98.8766 46.1188 97.3842 47.6111 97.3842 49.4521C97.3842 51.293 98.8766 52.7854 100.718 52.7854Z" fill="#6FBF8F"/>
<path d="M100.718 52.7854C102.558 52.7854 104.051 51.293 104.051 49.4521C104.051 47.6111 102.558 46.1188 100.718 46.1188C98.8766 46.1188 97.3842 47.6111 97.3842 49.4521C97.3842 51.293 98.8766 52.7854 100.718 52.7854Z" stroke="white" stroke-width="0.833335"/>
</g>
<g filter="url(#filter2_d_146_5315)">
<path d="M48.1579 96.7815C49.782 96.7815 51.0986 95.465 51.0986 93.8409C51.0986 92.2168 49.782 90.9002 48.1579 90.9002C46.5338 90.9002 45.2172 92.2168 45.2172 93.8409C45.2172 95.465 46.5338 96.7815 48.1579 96.7815Z" fill="#6FBF8F"/>
<path d="M48.1579 96.7815C49.782 96.7815 51.0986 95.465 51.0986 93.8409C51.0986 92.2168 49.782 90.9002 48.1579 90.9002C46.5338 90.9002 45.2172 92.2168 45.2172 93.8409C45.2172 95.465 46.5338 96.7815 48.1579 96.7815Z" stroke="white" stroke-width="0.73517"/>
</g>
<g filter="url(#filter3_d_146_5315)">
<path d="M95.2088 121.376C96.8329 121.376 98.1494 120.06 98.1494 118.436C98.1494 116.812 96.8329 115.495 95.2088 115.495C93.5847 115.495 92.2681 116.812 92.2681 118.436C92.2681 120.06 93.5847 121.376 95.2088 121.376Z" fill="#FC8C67"/>
<path d="M95.2088 121.376C96.8329 121.376 98.1494 120.06 98.1494 118.436C98.1494 116.812 96.8329 115.495 95.2088 115.495C93.5847 115.495 92.2681 116.812 92.2681 118.436C92.2681 120.06 93.5847 121.376 95.2088 121.376Z" stroke="white" stroke-width="0.73517"/>
</g>
<g filter="url(#filter4_d_146_5315)">
<path d="M124.08 118.169C125.704 118.169 127.021 116.852 127.021 115.228C127.021 113.604 125.704 112.287 124.08 112.287C122.456 112.287 121.14 113.604 121.14 115.228C121.14 116.852 122.456 118.169 124.08 118.169Z" fill="#7C9EDC"/>
<path d="M124.08 118.169C125.704 118.169 127.021 116.852 127.021 115.228C127.021 113.604 125.704 112.287 124.08 112.287C122.456 112.287 121.14 113.604 121.14 115.228C121.14 116.852 122.456 118.169 124.08 118.169Z" stroke="white" stroke-width="0.73517"/>
</g>
<g filter="url(#filter5_d_146_5315)">
<path d="M82.3225 83.7889C83.9466 83.7889 85.2632 82.4723 85.2632 80.8482C85.2632 79.2241 83.9466 77.9075 82.3225 77.9075C80.6984 77.9075 79.3818 79.2241 79.3818 80.8482C79.3818 82.4723 80.6984 83.7889 82.3225 83.7889Z" fill="#7C9EDC"/>
<path d="M82.3225 83.7889C83.9466 83.7889 85.2632 82.4723 85.2632 80.8482C85.2632 79.2241 83.9466 77.9075 82.3225 77.9075C80.6984 77.9075 79.3818 79.2241 79.3818 80.8482C79.3818 82.4723 80.6984 83.7889 82.3225 83.7889Z" stroke="white" stroke-width="0.73517"/>
</g>
<g filter="url(#filter6_d_146_5315)">
<path d="M76.4414 119.077C78.0655 119.077 79.382 117.76 79.382 116.136C79.382 114.512 78.0655 113.196 76.4414 113.196C74.8173 113.196 73.5007 114.512 73.5007 116.136C73.5007 117.76 74.8173 119.077 76.4414 119.077Z" fill="#7C9EDC"/>
<path d="M76.4414 119.077C78.0655 119.077 79.382 117.76 79.382 116.136C79.382 114.512 78.0655 113.196 76.4414 113.196C74.8173 113.196 73.5007 114.512 73.5007 116.136C73.5007 117.76 74.8173 119.077 76.4414 119.077Z" stroke="white" stroke-width="0.73517"/>
</g>
<g filter="url(#filter7_d_146_5315)">
<path d="M127.289 99.9895C128.913 99.9895 130.23 98.673 130.23 97.0489C130.23 95.4248 128.913 94.1082 127.289 94.1082C125.665 94.1082 124.348 95.4248 124.348 97.0489C124.348 98.673 125.665 99.9895 127.289 99.9895Z" fill="#7C9EDC"/>
<path d="M127.289 99.9895C128.913 99.9895 130.23 98.673 130.23 97.0489C130.23 95.4248 128.913 94.1082 127.289 94.1082C125.665 94.1082 124.348 95.4248 124.348 97.0489C124.348 98.673 125.665 99.9895 127.289 99.9895Z" stroke="white" stroke-width="0.73517"/>
</g>
<path opacity="0.2" d="M111.186 89.724L116.843 99.5218L114.878 110.664L106.211 117.938H94.8964L86.2285 110.664L84.2636 99.5218L89.9218 89.723L100.554 85.8539L111.186 89.724Z" fill="#FC8C67" stroke="#E0E0E0" stroke-width="1.06934"/>
<g filter="url(#filter8_d_146_5315)">
<path d="M111.248 92.5042C112.872 92.5042 114.189 91.1876 114.189 89.5635C114.189 87.9394 112.872 86.6228 111.248 86.6228C109.624 86.6228 108.308 87.9394 108.308 89.5635C108.308 91.1876 109.624 92.5042 111.248 92.5042Z" fill="#FC8C67"/>
<path d="M111.248 92.5042C112.872 92.5042 114.189 91.1876 114.189 89.5635C114.189 87.9394 112.872 86.6228 111.248 86.6228C109.624 86.6228 108.308 87.9394 108.308 89.5635C108.308 91.1876 109.624 92.5042 111.248 92.5042Z" stroke="white" stroke-width="0.73517"/>
</g>
<defs>
<filter id="filter0_d_146_5315" x="93.5783" y="45.0076" width="14.2784" height="14.2784" filterUnits="userSpaceOnUse" color-interpolation-filters="sRGB">
<feFlood flood-opacity="0" result="BackgroundImageFix"/>
<feColorMatrix in="SourceAlpha" type="matrix" values="0 0 0 0 0 0 0 0 0 0 0 0 0 0 0 0 0 0 127 0" result="hardAlpha"/>
<feOffset dy="2.69474"/>
<feGaussianBlur stdDeviation="1.34737"/>
<feComposite in2="hardAlpha" operator="out"/>
<feColorMatrix type="matrix" values="0 0 0 0 0 0 0 0 0 0 0 0 0 0 0 0 0 0 0.08 0"/>
<feBlend mode="normal" in2="BackgroundImageFix" result="effect1_dropShadow_146_5315"/>
<feBlend mode="normal" in="SourceGraphic" in2="effect1_dropShadow_146_5315" result="shape"/>
</filter>
<filter id="filter1_d_146_5315" x="94.2728" y="45.7021" width="12.8895" height="12.8895" filterUnits="userSpaceOnUse" color-interpolation-filters="sRGB">
<feFlood flood-opacity="0" result="BackgroundImageFix"/>
<feColorMatrix in="SourceAlpha" type="matrix" values="0 0 0 0 0 0 0 0 0 0 0 0 0 0 0 0 0 0 127 0" result="hardAlpha"/>
<feOffset dy="2.69474"/>
<feGaussianBlur stdDeviation="1.34737"/>
<feComposite in2="hardAlpha" operator="out"/>
<feColorMatrix type="matrix" values="0 0 0 0 0 0 0 0 0 0 0 0 0 0 0 0 0 0 0.08 0"/>
<feBlend mode="normal" in2="BackgroundImageFix" result="effect1_dropShadow_146_5315"/>
<feBlend mode="normal" in="SourceGraphic" in2="effect1_dropShadow_146_5315" result="shape"/>
</filter>
<filter id="filter2_d_146_5315" x="42.4723" y="90.5326" width="11.3711" height="11.3712" filterUnits="userSpaceOnUse" color-interpolation-filters="sRGB">
<feFlood flood-opacity="0" result="BackgroundImageFix"/>
<feColorMatrix in="SourceAlpha" type="matrix" values="0 0 0 0 0 0 0 0 0 0 0 0 0 0 0 0 0 0 127 0" result="hardAlpha"/>
<feOffset dy="2.37731"/>
<feGaussianBlur stdDeviation="1.18865"/>
<feComposite in2="hardAlpha" operator="out"/>
<feColorMatrix type="matrix" values="0 0 0 0 0 0 0 0 0 0 0 0 0 0 0 0 0 0 0.08 0"/>
<feBlend mode="normal" in2="BackgroundImageFix" result="effect1_dropShadow_146_5315"/>
<feBlend mode="normal" in="SourceGraphic" in2="effect1_dropShadow_146_5315" result="shape"/>
</filter>
<filter id="filter3_d_146_5315" x="89.5232" y="115.127" width="11.3711" height="11.3712" filterUnits="userSpaceOnUse" color-interpolation-filters="sRGB">
<feFlood flood-opacity="0" result="BackgroundImageFix"/>
<feColorMatrix in="SourceAlpha" type="matrix" values="0 0 0 0 0 0 0 0 0 0 0 0 0 0 0 0 0 0 127 0" result="hardAlpha"/>
<feOffset dy="2.37731"/>
<feGaussianBlur stdDeviation="1.18865"/>
<feComposite in2="hardAlpha" operator="out"/>
<feColorMatrix type="matrix" values="0 0 0 0 0 0 0 0 0 0 0 0 0 0 0 0 0 0 0.08 0"/>
<feBlend mode="normal" in2="BackgroundImageFix" result="effect1_dropShadow_146_5315"/>
<feBlend mode="normal" in="SourceGraphic" in2="effect1_dropShadow_146_5315" result="shape"/>
</filter>
<filter id="filter4_d_146_5315" x="117.831" y="111.92" width="12.4979" height="12.4979" filterUnits="userSpaceOnUse" color-interpolation-filters="sRGB">
<feFlood flood-opacity="0" result="BackgroundImageFix"/>
<feColorMatrix in="SourceAlpha" type="matrix" values="0 0 0 0 0 0 0 0 0 0 0 0 0 0 0 0 0 0 127 0" result="hardAlpha"/>
<feOffset dy="2.94068"/>
<feGaussianBlur stdDeviation="1.47034"/>
<feComposite in2="hardAlpha" operator="out"/>
<feColorMatrix type="matrix" values="0 0 0 0 0 0 0 0 0 0 0 0 0 0 0 0 0 0 0.08 0"/>
<feBlend mode="normal" in2="BackgroundImageFix" result="effect1_dropShadow_146_5315"/>
<feBlend mode="normal" in="SourceGraphic" in2="effect1_dropShadow_146_5315" result="shape"/>
</filter>
<filter id="filter5_d_146_5315" x="76.0735" y="77.5399" width="12.4979" height="12.4979" filterUnits="userSpaceOnUse" color-interpolation-filters="sRGB">
<feFlood flood-opacity="0" result="BackgroundImageFix"/>
<feColorMatrix in="SourceAlpha" type="matrix" values="0 0 0 0 0 0 0 0 0 0 0 0 0 0 0 0 0 0 127 0" result="hardAlpha"/>
<feOffset dy="2.94068"/>
<feGaussianBlur stdDeviation="1.47034"/>
<feComposite in2="hardAlpha" operator="out"/>
<feColorMatrix type="matrix" values="0 0 0 0 0 0 0 0 0 0 0 0 0 0 0 0 0 0 0.08 0"/>
<feBlend mode="normal" in2="BackgroundImageFix" result="effect1_dropShadow_146_5315"/>
<feBlend mode="normal" in="SourceGraphic" in2="effect1_dropShadow_146_5315" result="shape"/>
</filter>
<filter id="filter6_d_146_5315" x="70.1924" y="112.828" width="12.4979" height="12.4979" filterUnits="userSpaceOnUse" color-interpolation-filters="sRGB">
<feFlood flood-opacity="0" result="BackgroundImageFix"/>
<feColorMatrix in="SourceAlpha" type="matrix" values="0 0 0 0 0 0 0 0 0 0 0 0 0 0 0 0 0 0 127 0" result="hardAlpha"/>
<feOffset dy="2.94068"/>
<feGaussianBlur stdDeviation="1.47034"/>
<feComposite in2="hardAlpha" operator="out"/>
<feColorMatrix type="matrix" values="0 0 0 0 0 0 0 0 0 0 0 0 0 0 0 0 0 0 0.08 0"/>
<feBlend mode="normal" in2="BackgroundImageFix" result="effect1_dropShadow_146_5315"/>
<feBlend mode="normal" in="SourceGraphic" in2="effect1_dropShadow_146_5315" result="shape"/>
</filter>
<filter id="filter7_d_146_5315" x="121.04" y="93.7406" width="12.4979" height="12.4979" filterUnits="userSpaceOnUse" color-interpolation-filters="sRGB">
<feFlood flood-opacity="0" result="BackgroundImageFix"/>
<feColorMatrix in="SourceAlpha" type="matrix" values="0 0 0 0 0 0 0 0 0 0 0 0 0 0 0 0 0 0 127 0" result="hardAlpha"/>
<feOffset dy="2.94068"/>
<feGaussianBlur stdDeviation="1.47034"/>
<feComposite in2="hardAlpha" operator="out"/>
<feColorMatrix type="matrix" values="0 0 0 0 0 0 0 0 0 0 0 0 0 0 0 0 0 0 0.08 0"/>
<feBlend mode="normal" in2="BackgroundImageFix" result="effect1_dropShadow_146_5315"/>
<feBlend mode="normal" in="SourceGraphic" in2="effect1_dropShadow_146_5315" result="shape"/>
</filter>
<filter id="filter8_d_146_5315" x="105.563" y="86.2552" width="11.3712" height="11.3712" filterUnits="userSpaceOnUse" color-interpolation-filters="sRGB">
<feFlood flood-opacity="0" result="BackgroundImageFix"/>
<feColorMatrix in="SourceAlpha" type="matrix" values="0 0 0 0 0 0 0 0 0 0 0 0 0 0 0 0 0 0 127 0" result="hardAlpha"/>
<feOffset dy="2.37731"/>
<feGaussianBlur stdDeviation="1.18865"/>
<feComposite in2="hardAlpha" operator="out"/>
<feColorMatrix type="matrix" values="0 0 0 0 0 0 0 0 0 0 0 0 0 0 0 0 0 0 0.08 0"/>
<feBlend mode="normal" in2="BackgroundImageFix" result="effect1_dropShadow_146_5315"/>
<feBlend mode="normal" in="SourceGraphic" in2="effect1_dropShadow_146_5315" result="shape"/>
</filter>
<radialGradient id="paint0_radial_146_5315" cx="0" cy="0" r="1" gradientUnits="userSpaceOnUse" gradientTransform="translate(100.555 102.395) rotate(90) scale(53.4669)">
<stop stop-color="white"/>
<stop offset="1" stop-color="white" stop-opacity="0"/>
</radialGradient>
</defs>
</svg>
