<svg width="120" height="30" viewBox="0 0 120 30" fill="none" xmlns="http://www.w3.org/2000/svg">
<g clip-path="url(#clip0_71_1381)">
<path d="M21.1116 8.04525C19.4565 5.97118 17.3114 4.92676 14.622 4.92676C11.1248 4.92676 8.37369 6.15839 6.2852 8.66105L6.86397 5.38985H4.32231L0 30.0003H2.5392L4.20902 20.5314C5.5562 23.4554 8.51408 25.0689 11.8586 25.0689C14.4274 25.0689 16.7376 24.2239 18.8482 22.5317C20.9588 20.8394 22.2962 18.455 22.8454 15.3882C23.3429 12.5776 22.7642 10.1217 21.1116 8.04525ZM20.3111 15.1887C19.885 17.5361 18.8482 19.3418 17.1562 20.6448C15.6077 21.9158 13.6672 22.6119 11.6641 22.6154C9.62728 22.6154 7.93531 21.9602 6.62753 20.6201C5.31976 19.2802 4.82227 17.4574 5.17199 15.1173L5.24588 14.499C5.65416 12.4915 6.7628 10.6947 8.37369 9.42957C9.95053 8.10253 11.9479 7.3796 14.0087 7.39002C16.1588 7.39002 17.8507 8.15855 19.0428 9.69563C20.2298 11.1957 20.6535 13.0407 20.3111 15.1912V15.1887Z" fill="black"></path>
<path d="M43.8928 5.38937L43.1662 9.46856C41.824 6.54218 38.8661 4.92628 35.5216 4.92628C32.9541 4.92225 30.4667 5.81924 28.4926 7.46097C26.3769 9.15323 25.0692 11.5328 24.5347 14.6044C24.0422 17.4076 24.6111 19.8635 26.2588 21.9375C27.9064 24.0116 30.0614 25.0536 32.7508 25.0536C36.248 25.0536 39.0163 23.8219 41.0876 21.3242L40.5162 24.6077H43.0504L46.4344 5.3943L43.8928 5.38937ZM42.2082 14.9961L42.1269 15.4542C41.7207 17.4749 40.6256 19.2919 39.0288 20.5948C37.4318 21.8977 35.4322 22.6056 33.3714 22.5977C31.2165 22.5977 29.5294 21.8291 28.3374 20.3315C27.1454 18.7944 26.7234 16.9494 27.0715 14.7966C27.4951 12.4515 28.5271 10.646 30.1772 9.3429C31.7466 8.08236 33.6983 7.39348 35.7111 7.38954C37.7479 7.38954 39.4375 8.07679 40.7452 9.42666C42.0924 10.7692 42.553 12.656 42.2082 15.0035V14.9961Z" fill="black"></path>
<path d="M52.3456 8.07947L52.8111 5.38959H50.2768L46.8928 24.603H49.4272L51.3137 13.9199C52.0821 9.48604 55.008 7.54248 58.4979 7.54248L58.9584 5.07923C56.2689 4.89202 54.077 5.89456 52.3456 8.07947Z" fill="black"></path>
<path d="M76.6709 5.38938L75.932 9.46857C74.5947 6.54218 71.6344 4.92629 68.2923 4.92629C65.7247 4.92184 63.2372 5.81888 61.2633 7.46098C59.1477 9.15324 57.8448 11.5328 57.3054 14.6044C56.8129 17.4076 57.3793 19.8635 59.0295 21.9375C60.6796 24.0116 62.837 25.0536 65.5265 25.0536C69.0187 25.0536 71.787 23.8219 73.8632 21.3242L73.2869 24.6077H75.8211L79.2051 5.3943L76.6709 5.38938ZM74.9789 14.9961L74.8976 15.4542C74.4914 17.4749 73.3963 19.2919 71.7995 20.5948C70.2026 21.8977 68.2029 22.6056 66.1422 22.5977C63.992 22.5977 62.3001 21.8291 61.1081 20.3315C59.9136 18.7944 59.4974 16.947 59.8398 14.7966C60.2658 12.4515 61.3026 10.646 62.9527 9.3429C64.5194 8.07512 66.4716 7.37996 68.4868 7.3723C70.5236 7.3723 72.2082 8.05955 73.5159 9.40941C74.8705 10.7692 75.3212 12.656 74.9789 15.0035V14.9961Z" fill="black"></path>
<path d="M84.0035 0L81.6979 13.1168L79.7026 24.608H82.2374L84.2301 13.1168L86.5455 0H84.0035Z" fill="black"></path>
<path d="M89.4687 5.32324L86.7591 20.7998L85.1605 30.0002H87.7001L89.3013 20.7998L92.0108 5.32324H89.4687Z" fill="black"></path>
<path d="M110.856 7.93193C109.35 5.92931 107.134 4.92676 104.25 4.92676C101.51 4.93161 98.8603 5.90833 96.7735 7.68318C94.6856 9.45798 93.2952 11.9159 92.8494 14.6197C92.3567 17.5756 92.8887 20.0733 94.4653 22.0686C96.0413 24.0638 98.3419 25.0689 101.3 25.0689C104.952 25.0689 108.599 23.4159 110.446 20.6128L108.444 19.3048C106.873 21.4946 104.603 22.608 101.644 22.608C97.6125 22.608 95.0785 20.1447 95.2285 16.27H112.018C112.155 15.8823 112.259 15.4834 112.328 15.0778C112.897 12.3165 112.397 9.9272 110.856 7.93193ZM109.898 13.8093H95.6128C96.7903 9.9272 100.063 7.39002 104.094 7.39002C107.821 7.39002 110.208 9.60695 109.898 13.8093Z" fill="black"></path>
<path d="M117.479 0L115.173 13.1168L113.161 24.608H115.701L117.696 13.1168L120.001 0H117.479Z" fill="black"></path>
</g>
<defs>
<clipPath id="clip0_71_1381">
<rect width="120" height="30" fill="white"></rect>
</clipPath>
</defs>
</svg>